<?xml version="1.0" standalone="no"?>
<!DOCTYPE svg PUBLIC "-//W3C//DTD SVG 20010904//EN"
 "http://www.w3.org/TR/2001/REC-SVG-20010904/DTD/svg10.dtd">
<svg version="1.0" xmlns="http://www.w3.org/2000/svg"
 width="700.000000pt" height="700.000000pt" viewBox="0 0 700.000000 700.000000"
 preserveAspectRatio="xMidYMid meet">
<metadata>
Created by potrace 1.14, written by Peter Selinger 2001-2017
</metadata>
<g transform="translate(0.000000,700.000000) scale(0.100000,-0.100000)"
fill="#000000" stroke="none">
<path d="M3959 6266 c-2 -2 -42 -6 -89 -9 -175 -9 -317 -62 -358 -132 -18 -32
-22 -51 -19 -93 9 -122 112 -179 243 -134 87 29 107 33 202 33 63 0 111 -7
172 -25 106 -30 118 -32 154 -22 150 39 167 234 26 306 -47 24 -176 57 -255
66 -33 3 -63 8 -66 10 -3 2 -8 2 -10 0z"/>
<path d="M3135 5686 c-90 -41 -119 -129 -120 -358 l0 -158 -162 -1 c-90 -1
-167 -3 -173 -4 -5 -1 -19 -3 -29 -4 -11 0 -33 -13 -51 -27 -77 -65 -86 -166
-21 -238 49 -54 63 -56 398 -56 301 0 309 1 348 23 47 27 85 88 85 138 0 19
-11 63 -25 97 -13 33 -29 82 -35 109 -18 79 -14 215 9 299 15 57 -14 124 -71
167 -34 25 -113 32 -153 13z"/>
<path d="M4597 5679 c-72 -38 -99 -113 -74 -211 25 -98 16 -224 -23 -337 -18
-52 -32 -109 -33 -127 -1 -48 29 -106 70 -134 l36 -25 311 -3 c350 -3 370 0
420 61 53 66 45 165 -18 221 -45 40 -79 46 -261 46 -173 0 -176 0 -170 20 11
34 13 217 4 268 -21 109 -33 149 -55 178 -46 63 -135 81 -207 43z"/>
<path d="M1690 4315 c-93 -42 -103 -70 -104 -291 l-1 -182 -50 6 c-105 12
-221 5 -335 -19 -44 -9 -63 -20 -96 -54 -82 -85 -62 -205 43 -256 44 -21 49
-22 127 -9 158 26 246 18 395 -35 83 -29 114 -27 173 11 71 45 72 51 71 404 0
275 -2 319 -16 347 -39 73 -135 110 -207 78z"/>
<path d="M6080 4321 c-59 -19 -104 -67 -114 -122 -3 -13 -5 -99 -5 -192 l-1
-167 -26 6 c-32 8 -205 9 -259 1 -143 -21 -199 -47 -229 -110 -33 -71 -16
-150 44 -200 40 -34 87 -42 162 -27 140 27 232 20 381 -31 78 -26 92 -28 130
-19 53 15 104 63 117 112 6 21 10 162 10 330 -1 261 -3 298 -19 334 -30 66
-122 107 -191 85z"/>
<path d="M663 3369 c-96 -27 -161 -193 -168 -424 -6 -209 52 -397 136 -444
107 -60 243 17 242 138 0 20 -11 65 -23 101 -40 114 -34 280 14 415 45 127
-70 250 -201 214z"/>
<path d="M5051 3369 c-45 -10 -82 -38 -108 -85 -22 -39 -56 -155 -68 -229 -8
-49 -7 -199 0 -251 10 -70 45 -195 65 -234 64 -125 230 -127 294 -3 20 40 20
88 0 144 -23 65 -41 185 -37 256 1 34 14 97 28 140 14 43 25 90 25 105 0 100
-99 179 -199 157z"/>
<path d="M1710 2393 c-8 -3 -29 -11 -46 -19 -99 -44 -277 -61 -369 -35 -65 18
-114 13 -162 -14 -118 -70 -102 -234 28 -289 76 -32 279 -49 384 -32 l41 6 0
-183 c0 -165 2 -187 20 -218 67 -114 231 -111 292 6 13 25 15 78 15 345 1 350
0 354 -67 405 -34 26 -101 39 -136 28z"/>
<path d="M6018 2370 c-135 -46 -208 -54 -323 -34 -90 15 -161 11 -191 -12 -45
-33 -67 -70 -71 -121 -6 -61 22 -122 69 -151 69 -42 262 -65 401 -48 l57 7 0
-177 c0 -157 2 -182 20 -218 34 -71 115 -107 193 -85 38 10 91 61 106 102 7
18 11 141 11 329 0 285 -1 304 -21 344 -43 89 -119 108 -251 64z"/>
<path d="M2223 1004 c-138 -35 -167 -220 -46 -295 l38 -24 563 -1 c513 0 566
1 601 17 116 52 122 225 10 288 -38 22 -45 22 -581 24 -368 1 -556 -2 -585 -9z"/>
<path d="M4547 1008 c-60 -8 -105 -41 -128 -93 -34 -76 -10 -155 64 -207 l32
-23 560 -1 c469 -1 566 1 597 13 41 16 97 73 99 101 1 9 3 31 4 47 2 38 -20
94 -48 120 -48 45 -57 46 -609 48 -289 1 -546 -1 -571 -5z"/>
</g>
</svg>
